# xmcd
#
# Track frame offsets:
#	150
#	13840
#	27090
#	37635
#	48745
#	58782
#	69992
#	80830
#	93655
#	105457
#	120200
#	130895
#	144972
#	155545
#
# Disc length: 2220 seconds
#
# Revision: 1
# Processed by: cddbd v1.4PL0 Copyright (c) Steve Scherf et al.
# Submitted via: audiograbber 1.82.02
#
DISCID=b108aa0e
DTITLE=Ben E King - Standing By
DYEAR=2000
DGENRE=Soul
TTITLE0=Stand By Me
TTITLE1=Spanish Harlem
TTITLE2=Up On The Roof
TTITLE3=Dance With Me
TTITLE4=I Count The Tears
TTITLE5=Save The Last Dance For Me
TTITLE6=I (Who Have Nothing)
TTITLE7=Don't Play That Song
TTITLE8=Goodnight My Love
TTITLE9=It's All Over
TTITLE10=How Can I Forget
TTITLE11=Amor (Amor)
TTITLE12=Young Boy Blues
TTITLE13=This Magic Moment
EXTD=
EXTT0=
EXTT1=
EXTT2=
EXTT3=
EXTT4=
EXTT5=
EXTT6=
EXTT7=
EXTT8=
EXTT9=
EXTT10=
EXTT11=
EXTT12=
EXTT13=
PLAYORDER=
